<svg width="24" height="24" viewBox="0 0 24 24" fill="none" xmlns="http://www.w3.org/2000/svg">
<rect width="24" height="24" fill="#1E1E1E"/>
<g id="Iconography">
<rect x="-3867.5" y="-981" width="5902" height="3311" rx="8" fill="white"/>
<g id="Container">
<rect width="5902" height="3064" transform="translate(-3867.5 -734)" fill="white"/>
<g id="Container_2">
<g id="Texts">
<rect x="-288" y="-144" width="1000" height="404" rx="24" fill="white"/>
<g id="icon / bold">
<path id="icon" d="M14.5 21H5.13861C5.06206 21 5 20.9379 5 20.8614L5.00001 12H14.5C16.9853 12 19 14.0147 19 16.5C19 18.9853 16.9853 21 14.5 21Z" stroke="black" stroke-width="2" stroke-linecap="round" stroke-linejoin="round"/>
<path id="icon_2" d="M13.5 12H5.12871C5.05763 12 5 11.9424 5 11.8713L5.00001 3H13.5C15.9853 3 18 5.01472 18 7.5C18 9.98528 15.9853 12 13.5 12Z" stroke="black" stroke-width="2" stroke-linecap="round" stroke-linejoin="round"/>
</g>
</g>
</g>
</g>
</g>
</svg>
