<svg width="24" height="24" viewBox="0 0 24 24" fill="none" xmlns="http://www.w3.org/2000/svg">
<rect width="24" height="24" fill="#1E1E1E"/>
<g id="Iconography">
<rect x="-5215.5" y="-1075" width="5902" height="3311" rx="8" fill="white"/>
<g id="Container">
<rect width="5902" height="3064" transform="translate(-5215.5 -828)" fill="white"/>
<g id="Container_2">
<g id="User">
<rect x="-512" y="-144" width="1000" height="308" rx="24" fill="white"/>
<g id="icon / user-remove">
<g id="icon">
<path d="M16 7C16 9.20914 14.2091 11 12 11C9.79086 11 8 9.20914 8 7C8 4.79086 9.79086 3 12 3C14.2091 3 16 4.79086 16 7Z" fill="black"/>
<path d="M12 22C9.13273 22 3.64905 20.6701 5.30565 18C6.55143 15.9921 9.07123 14 12 14C14.9288 14 17.4486 15.9921 18.6943 18C20.3509 20.6701 14.8673 22 12 22Z" fill="black"/>
<path d="M18 4C17.4477 4 17 4.44772 17 5C17 5.55228 17.4477 6 18 6H22C22.5523 6 23 5.55228 23 5C23 4.44772 22.5523 4 22 4H18Z" fill="black"/>
</g>
</g>
</g>
</g>
</g>
</g>
</svg>
